<svg xmlns="http://www.w3.org/2000/svg" xmlns:xlink="http://www.w3.org/1999/xlink" contentStyleType="text/css" data-diagram-type="DESCRIPTION" height="290px" preserveAspectRatio="none" style="width:705px;height:290px;" version="1.1" viewBox="0 0 705 290" width="705px" zoomAndPan="magnify"><defs/><g><!--entity DiscriminatorCircle--><g id="elem_DiscriminatorCircle"><ellipse cx="167.52" cy="145.89" fill="#008000" rx="8" ry="8" style="stroke:#181818;stroke-width:0.5;"/><text fill="#000000" font-family="sans-serif" font-size="14" lengthAdjust="spacing" textLength="10.7803" x="162.1299" y="175.8851">D</text></g><!--entity ImageInput--><g id="elem_ImageInput"><rect fill="#FFA500" height="36.2969" rx="3.5" ry="3.5" style="stroke:#181818;stroke-width:0.5;" width="104.5469" x="115.25" y="15.15"/><text fill="#000000" font-family="sans-serif" font-size="14" lengthAdjust="spacing" textLength="84.5469" x="125.25" y="38.1451">Image Input</text></g><!--entity ConvTranspose2D1--><g id="elem_ConvTranspose2D1"><rect fill="#ADD8E6" height="52.5938" rx="3.5" ry="3.5" style="stroke:#181818;stroke-width:0.5;" width="163.0488" x="255" y="7"/><text fill="#000000" font-family="sans-serif" font-size="14" lengthAdjust="spacing" textLength="125.7061" x="273.6714" y="29.9951">ConvTranspose2d</text><text fill="#000000" font-family="sans-serif" font-size="14" lengthAdjust="spacing" textLength="143.0488" x="265" y="46.292">Upsamples Features</text></g><!--entity BatchNorm1--><g id="elem_BatchNorm1"><rect fill="#808080" height="52.5938" rx="3.5" ry="3.5" style="stroke:#181818;stroke-width:0.5;" width="116.4688" x="453.29" y="7"/><text fill="#000000" font-family="sans-serif" font-size="14" lengthAdjust="spacing" textLength="96.4688" x="463.29" y="29.9951">BatchNorm2d</text><text fill="#000000" font-family="sans-serif" font-size="14" lengthAdjust="spacing" textLength="78.0459" x="474.7265" y="46.292">Normalizes</text></g><!--entity ReLU1--><g id="elem_ReLU1"><rect fill="#FFFF00" height="52.5938" rx="3.5" ry="3.5" style="stroke:#181818;stroke-width:0.5;" width="94.7852" x="605.13" y="7"/><text fill="#000000" font-family="sans-serif" font-size="14" lengthAdjust="spacing" textLength="36.3877" x="634.3287" y="29.9951">ReLU</text><text fill="#000000" font-family="sans-serif" font-size="14" lengthAdjust="spacing" textLength="70.335" x="619.5802" y="46.292">Activation</text></g><!--entity ResBlock1--><g id="elem_ResBlock1"><rect fill="#808080" height="52.5938" rx="3.5" ry="3.5" style="stroke:#181818;stroke-width:0.5;" width="137.8857" x="397.58" y="119.59"/><text fill="#000000" font-family="sans-serif" font-size="14" lengthAdjust="spacing" textLength="63.499" x="434.7734" y="142.5851">ResBlock</text><text fill="#000000" font-family="sans-serif" font-size="14" lengthAdjust="spacing" textLength="113.4355" x="412.0302" y="158.882">Skip Connection</text></g><!--entity RepeatBlock--><g id="elem_RepeatBlock"><rect fill="#FFFFFF" height="52.5938" rx="3.5" ry="3.5" style="stroke:#181818;stroke-width:0.5;" width="69.9092" x="53.57" y="119.59"/><text fill="#000000" font-family="sans-serif" font-size="14" lengthAdjust="spacing" textLength="49.9092" x="63.57" y="142.5851">Repeat</text><text fill="#000000" font-family="sans-serif" font-size="14" lengthAdjust="spacing" textLength="17.1924" x="82.1535" y="158.882">x2</text></g><!--entity ConvTranspose2D3--><g id="elem_ConvTranspose2D3"><rect fill="#ADD8E6" height="52.5938" rx="3.5" ry="3.5" style="stroke:#181818;stroke-width:0.5;" width="163.0488" x="7" y="232.19"/><text fill="#000000" font-family="sans-serif" font-size="14" lengthAdjust="spacing" textLength="125.7061" x="25.6714" y="255.1851">ConvTranspose2d</text><text fill="#000000" font-family="sans-serif" font-size="14" lengthAdjust="spacing" textLength="143.0488" x="17" y="271.482">Upsamples Features</text></g><!--entity Tanh--><g id="elem_Tanh"><rect fill="#FFFF00" height="52.5938" rx="3.5" ry="3.5" style="stroke:#181818;stroke-width:0.5;" width="94.7852" x="205.13" y="232.19"/><text fill="#000000" font-family="sans-serif" font-size="14" lengthAdjust="spacing" textLength="34.877" x="235.0841" y="255.1851">Tanh</text><text fill="#000000" font-family="sans-serif" font-size="14" lengthAdjust="spacing" textLength="70.335" x="219.5802" y="271.482">Activation</text></g><!--entity LinearLayer2--><g id="elem_LinearLayer2"><rect fill="#ADD8E6" height="52.5938" rx="3.5" ry="3.5" style="stroke:#181818;stroke-width:0.5;" width="164.9561" x="335.05" y="232.19"/><text fill="#000000" font-family="sans-serif" font-size="14" lengthAdjust="spacing" textLength="43.5107" x="395.7727" y="255.1851">Linear</text><text fill="#000000" font-family="sans-serif" font-size="14" lengthAdjust="spacing" textLength="144.9561" x="345.05" y="271.482">Transforms Features</text></g><!--reverse link ImageInput to DiscriminatorCircle--><g id="link_ImageInput_DiscriminatorCircle"><path d="M156.7551,57.4578 C151.8251,81.5078 153.82,118.3 160.33,136.39 " fill="none" id="ImageInput-backto-DiscriminatorCircle" style="stroke:#191919;stroke-width:1;"/><polygon fill="#191919" points="157.96,51.58,152.2342,59.5934,156.9559,56.4781,160.0712,61.1999,157.96,51.58" style="stroke:#191919;stroke-width:1;"/></g><!--link ImageInput to DiscriminatorCircle--><!--link ImageInput to ConvTranspose2D1--><g id="link_ImageInput_ConvTranspose2D1"><path d="M220.01,33.3 C231.54,33.3 237.07,33.3 248.6,33.3 " fill="none" id="ImageInput-to-ConvTranspose2D1" style="stroke:#191919;stroke-width:1;"/><polygon fill="#191919" points="254.6,33.3,245.6,29.3,249.6,33.3,245.6,37.3,254.6,33.3" style="stroke:#191919;stroke-width:1;"/></g><!--link ConvTranspose2D1 to BatchNorm1--><g id="link_ConvTranspose2D1_BatchNorm1"><path d="M418.21,33.3 C429.76,33.3 435.3,33.3 446.84,33.3 " fill="none" id="ConvTranspose2D1-to-BatchNorm1" style="stroke:#191919;stroke-width:1;"/><polygon fill="#191919" points="452.84,33.3,443.84,29.3,447.84,33.3,443.84,37.3,452.84,33.3" style="stroke:#191919;stroke-width:1;"/></g><!--link BatchNorm1 to ReLU1--><g id="link_BatchNorm1_ReLU1"><path d="M570.18,33.3 C581.76,33.3 587.34,33.3 598.92,33.3 " fill="none" id="BatchNorm1-to-ReLU1" style="stroke:#191919;stroke-width:1;"/><polygon fill="#191919" points="604.92,33.3,595.92,29.3,599.92,33.3,595.92,37.3,604.92,33.3" style="stroke:#191919;stroke-width:1;"/></g><!--link ReLU1 to ResBlock1--><g id="link_ReLU1_ResBlock1"><path d="M609.38,59.95 C579.44,77.75 544.8668,98.3028 514.9068,116.1228 " fill="none" id="ReLU1-to-ResBlock1" style="stroke:#191919;stroke-width:1;"/><polygon fill="#191919" points="509.75,119.19,519.53,118.027,514.0473,116.634,515.4403,111.1513,509.75,119.19" style="stroke:#191919;stroke-width:1;"/></g><!--reverse link RepeatBlock to ResBlock1--><g id="link_RepeatBlock_ResBlock1"><path d="M117.2949,115.0946 C129.5649,103.6346 141.05,95.61 158.02,89.59 C243.73,59.24 348.9,92.44 411.67,119.2 " fill="none" id="RepeatBlock-backto-ResBlock1" style="stroke:#191919;stroke-width:1;"/><polygon fill="#191919" points="112.91,119.19,122.2176,115.9701,116.5641,115.7771,116.7571,110.1236,112.91,119.19" style="stroke:#191919;stroke-width:1;"/></g><!--link RepeatBlock to ConvTranspose2D3--><g id="link_RepeatBlock_ConvTranspose2D3"><path d="M88.52,172.54 C88.52,190.41 88.52,208.14 88.52,225.97 " fill="none" id="RepeatBlock-to-ConvTranspose2D3" style="stroke:#191919;stroke-width:1;"/><polygon fill="#191919" points="88.52,231.97,92.52,222.97,88.52,226.97,84.52,222.97,88.52,231.97" style="stroke:#191919;stroke-width:1;"/></g><!--link ConvTranspose2D3 to Tanh--><g id="link_ConvTranspose2D3_Tanh"><path d="M170.52,258.48 C181.95,258.48 187.37,258.48 198.8,258.48 " fill="none" id="ConvTranspose2D3-to-Tanh" style="stroke:#191919;stroke-width:1;"/><polygon fill="#191919" points="204.8,258.48,195.8,254.48,199.8,258.48,195.8,262.48,204.8,258.48" style="stroke:#191919;stroke-width:1;"/></g><!--link Tanh to LinearLayer2--><g id="link_Tanh_LinearLayer2"><path d="M300.22,258.48 C311.68,258.48 317.13,258.48 328.59,258.48 " fill="none" id="Tanh-to-LinearLayer2" style="stroke:#191919;stroke-width:1;"/><polygon fill="#191919" points="334.59,258.48,325.59,254.48,329.59,258.48,325.59,262.48,334.59,258.48" style="stroke:#191919;stroke-width:1;"/></g><!--SRC=[hLCzRzim4DtvAzXuyAGXxbuWiH4WW54KZJCr7IxKMI9C7GMIYkF- -Xv9IwO_kdKnp7lltf7ldRw45ZkK7JWl_4vJ3muw-GvgrpWxKBsqnZeP791d22aKh1gtC9YmmS_mO7H37SDIyGyw8UQogYgvqbuvtMc2m39FnkvZMSoliPS0BaHmBfHsog2yMzr9yEUqPOPcZKEaSSXp1mtAP-g7u9EyGnM0cgXHO4ajdTDHpYo_ga6HRvE9FvnLwBscHXeueFFvHeNWqjB79jbXFIxgDthjFNIzGI-V4CBWqAT1vxpLlPonHMruDmEMSeyGLFlTkYvAoVW7ZFvpr9Z0-_XYE9IDFt7zoXqFAkWF2DfIweXL9X_GiDNdTFzehDfnoyjEz_5wnEYfByFZeFFMdX_6ZP-B8pUU4rtEzgqEAFw3GL__OT06gBr-PwpUUkPQ4u9xeoIyPUSkXcPy7QDTb0EFctHo9I_IhTsh36v3zQtO954iLUMY9iEN-OkhXPYefvX5aVW4fqn5JhQgxPvIxPYNE2KtNgp8HvHPZRsNnekh9ARHqMQHl9vAfOEZRNooG_fuHQjhbFa3lktUBsRKIB-7lYei_0i0]--></g></svg>