<svg xmlns="http://www.w3.org/2000/svg" xmlns:xlink="http://www.w3.org/1999/xlink" contentStyleType="text/css" data-diagram-type="DESCRIPTION" height="504px" preserveAspectRatio="none" style="width:323px;height:504px;" version="1.1" viewBox="0 0 323 504" width="323px" zoomAndPan="magnify"><defs/><g><!--entity GeneratorCircle--><g id="elem_GeneratorCircle"><ellipse cx="99.52" cy="466.38" fill="#0000FF" rx="8" ry="8" style="stroke:#181818;stroke-width:0.5;"/><text fill="#000000" font-family="sans-serif" font-size="14" lengthAdjust="spacing" textLength="10.8486" x="94.0957" y="496.3751">G</text></g><!--entity TextInput--><g id="elem_TextInput"><rect fill="#FFA500" height="52.5938" rx="2.5" ry="2.5" style="stroke:#181818;stroke-width:0.5;" width="110.3301" x="44.36" y="344.79"/><text fill="#000000" font-family="sans-serif" font-size="14" lengthAdjust="spacing" textLength="71.6406" x="63.7047" y="367.7851">Text Input</text><text fill="#000000" font-family="sans-serif" font-size="14" lengthAdjust="spacing" textLength="90.3301" x="54.36" y="384.082">(Embedding)</text></g><!--entity LinearLayer1--><g id="elem_LinearLayer1"><rect fill="#ADD8E6" height="52.5938" rx="2.5" ry="2.5" style="stroke:#181818;stroke-width:0.5;" width="127.3311" x="189.86" y="344.79"/><text fill="#000000" font-family="sans-serif" font-size="14" lengthAdjust="spacing" textLength="43.5107" x="231.7702" y="367.7851">Linear</text><text fill="#000000" font-family="sans-serif" font-size="14" lengthAdjust="spacing" textLength="107.3311" x="199.86" y="384.082">Transform Text</text></g><!--entity LeakyReLU1--><g id="elem_LeakyReLU1"><rect fill="#FFFF00" height="52.5938" rx="2.5" ry="2.5" style="stroke:#181818;stroke-width:0.5;" width="97.7725" x="204.64" y="232.19"/><text fill="#000000" font-family="sans-serif" font-size="14" lengthAdjust="spacing" textLength="77.7725" x="214.64" y="255.1851">LeakyReLU</text><text fill="#000000" font-family="sans-serif" font-size="14" lengthAdjust="spacing" textLength="70.335" x="218.3588" y="271.482">Activation</text></g><!--entity FeatureFusion--><g id="elem_FeatureFusion"><rect fill="#ADD8E6" height="52.5938" rx="2.5" ry="2.5" style="stroke:#181818;stroke-width:0.5;" width="73.9766" x="209.54" y="119.6"/><text fill="#000000" font-family="sans-serif" font-size="14" lengthAdjust="spacing" textLength="53.9766" x="219.54" y="142.5951">Feature</text><text fill="#000000" font-family="sans-serif" font-size="14" lengthAdjust="spacing" textLength="45.5479" x="223.7544" y="158.892">Fusion</text></g><!--entity SpectralNorm--><g id="elem_SpectralNorm"><rect fill="#808080" height="52.5938" rx="2.5" ry="2.5" style="stroke:#181818;stroke-width:0.5;" width="141.2217" x="99.91" y="7"/><text fill="#000000" font-family="sans-serif" font-size="14" lengthAdjust="spacing" textLength="100.6797" x="120.181" y="29.9951">Spectral Norm</text><text fill="#000000" font-family="sans-serif" font-size="14" lengthAdjust="spacing" textLength="121.2217" x="109.91" y="46.292">Stabilize Training</text></g><!--entity ResBlockGenerator--><g id="elem_ResBlockGenerator"><rect fill="#808080" height="52.5938" rx="2.5" ry="2.5" style="stroke:#181818;stroke-width:0.5;" width="135.8076" x="32.62" y="119.6"/><text fill="#000000" font-family="sans-serif" font-size="14" lengthAdjust="spacing" textLength="63.499" x="68.7743" y="142.5951">ResBlock</text><text fill="#000000" font-family="sans-serif" font-size="14" lengthAdjust="spacing" textLength="111.3574" x="47.0702" y="158.892">Skip connection</text></g><!--entity SequentialDecoder--><g id="elem_SequentialDecoder"><rect fill="#FFC0CB" height="52.5938" rx="2.5" ry="2.5" style="stroke:#181818;stroke-width:0.5;" width="163.0488" x="7" y="232.19"/><text fill="#000000" font-family="sans-serif" font-size="14" lengthAdjust="spacing" textLength="137.9561" x="19.5464" y="255.1851">Sequential Decoder</text><text fill="#000000" font-family="sans-serif" font-size="14" lengthAdjust="spacing" textLength="143.0488" x="17" y="271.482">Upsamples Features</text></g><!--link GeneratorCircle to TextInput--><g id="link_GeneratorCircle_TextInput"><path d="M107.65,457.02 C113.01,443.77 115.154,423.3772 112.504,403.5272 " fill="none" id="GeneratorCircle-to-TextInput" style="stroke:#181818;stroke-width:1;"/><polygon fill="#181818" points="111.71,397.58,108.9361,407.0302,112.3716,402.536,116.8658,405.9715,111.71,397.58" style="stroke:#181818;stroke-width:1;"/></g><!--link TextInput to GeneratorCircle--><!--link TextInput to LinearLayer1--><g id="link_TextInput_LinearLayer1"><path d="M155.17,371.08 C166.57,371.08 171.96,371.08 183.36,371.08 " fill="none" id="TextInput-to-LinearLayer1" style="stroke:#181818;stroke-width:1;"/><polygon fill="#181818" points="189.36,371.08,180.36,367.08,184.36,371.08,180.36,375.08,189.36,371.08" style="stroke:#181818;stroke-width:1;"/></g><!--link LinearLayer1 to LeakyReLU1--><g id="link_LinearLayer1_LeakyReLU1"><path d="M265.11,344.57 C267.66,326.74 268.5011,308.9508 265.9711,291.0808 " fill="none" id="LinearLayer1-to-LeakyReLU1" style="stroke:#181818;stroke-width:1;"/><polygon fill="#181818" points="265.13,285.14,262.4311,294.6119,265.8309,290.0906,270.3521,293.4904,265.13,285.14" style="stroke:#181818;stroke-width:1;"/></g><!--link LeakyReLU1 to LinearLayer1--><!--link LeakyReLU1 to FeatureFusion--><g id="link_LeakyReLU1_FeatureFusion"><path d="M263.49,231.98 C264.91,214.14 264.6277,196.2872 260.9577,178.4272 " fill="none" id="LeakyReLU1-to-FeatureFusion" style="stroke:#181818;stroke-width:1;"/><polygon fill="#181818" points="259.75,172.55,257.6434,182.1709,260.7564,177.4477,265.4797,180.5607,259.75,172.55" style="stroke:#181818;stroke-width:1;"/></g><!--link FeatureFusion to LeakyReLU1--><!--link FeatureFusion to SpectralNorm--><g id="link_FeatureFusion_SpectralNorm"><path d="M240.57,119.38 C230.87,101.55 218.4002,82.4384 203.5802,64.5684 " fill="none" id="FeatureFusion-to-SpectralNorm" style="stroke:#181818;stroke-width:1;"/><polygon fill="#181818" points="199.75,59.95,202.4163,69.4311,202.9418,63.7987,208.5742,64.3242,199.75,59.95" style="stroke:#181818;stroke-width:1;"/></g><!--link SpectralNorm to FeatureFusion--><!--link SpectralNorm to ResBlockGenerator--><g id="link_SpectralNorm_ResBlockGenerator"><path d="M165.89,59.95 C157.12,77.82 145.769,96.8103 131.929,114.6403 " fill="none" id="SpectralNorm-to-ResBlockGenerator" style="stroke:#181818;stroke-width:1;"/><polygon fill="#181818" points="128.25,119.38,136.9284,114.7232,131.3159,115.4303,130.6088,109.8178,128.25,119.38" style="stroke:#181818;stroke-width:1;"/></g><!--link SpectralNorm to ResBlockGenerator--><!--link ResBlockGenerator to SequentialDecoder--><g id="link_ResBlockGenerator_SequentialDecoder"><path d="M109.34,172.55 C109.94,190.41 108.8244,208.3215 104.3344,226.1615 " fill="none" id="ResBlockGenerator-to-SequentialDecoder" style="stroke:#181818;stroke-width:1;"/><polygon fill="#181818" points="102.87,231.98,108.9457,224.2285,104.0904,227.1312,101.1876,222.2759,102.87,231.98" style="stroke:#181818;stroke-width:1;"/></g><!--link ResBlockGenerator to SequentialDecoder--><!--SRC=[VLFBRjim4BppAuZeuFQWGt-WGEhMGG6ZXpWvLJrGr5eXH2rPachgVdrNfAc7rVHY63kpmzsPbUyKMk54psiXkzQP0PkzqSRnu0HwWW03ynEhWRCOT7Y2t-5UgnPxWhca7t2CxNXPblm149m8977GvdKiiTswVWh2XH7OCQcSrC3l7kwuy3Dbdyf5hGTWgVqhsY7usEH01e7js3SEag0AtttfQsWQXUtxg3PY4UA5eMNQh1Hxh3CIl2SolzKyAWJXAdmQ7JWRryUEA9cWexY0-y0BCk0bn16NtI2wooCSdokybq7z4a4PJCqPeTOBQ3BdEj3Uz3K9D_mC8WmEDbiUKht2m-2pshMMAc_CShBqtmdDlz4M5PBljTBg3t1QJI7j7fKoQoJnedNYmZQ9mS-1GbOazKaRsMqyUmGVWGhvgLEMIuD8Q1usmxDYUcSvw_p4Pv2c0KhWsNhHMmtJjZuDF56lJ5vOXLq-mFtqje_NTtjLPVbnlWqsNqdfHWy9NARCLf7Fb2bBjeXrWbVXi7LK4sdfErk5K3Rc5OcniOrjZSpSZIdP3XhT3F5pOo-g0Pu-kQqhtmbj07yCjbpOirv_oNd3WYNblpOiYIih_h5ZvceuXnlszXXks1kvlm00]--></g></svg>