<?xml version="1.0" encoding="UTF-8" standalone="no"?>
<!DOCTYPE svg PUBLIC "-//W3C//DTD SVG 1.1//EN"
 "http://www.w3.org/Graphics/SVG/1.1/DTD/svg11.dtd">
<!-- Generated by graphviz version 2.43.0 (0)
 -->
<!-- Title: %3 Pages: 1 -->
<svg width="114pt" height="576pt"
 viewBox="0.00 0.00 114.32 576.00" xmlns="http://www.w3.org/2000/svg" xmlns:xlink="http://www.w3.org/1999/xlink">
<g id="graph0" class="graph" transform="scale(0.33 0.33) rotate(0) translate(4 1764.5)">
<title>%3</title>
<polygon fill="white" stroke="transparent" points="-4,4 -4,-1764.5 347,-1764.5 347,4 -4,4"/>
<!-- generator_input -->
<g id="node1" class="node">
<title>generator_input</title>
<polygon fill="yellow" stroke="yellow" points="134,-80.5 34,-80.5 34,-44.5 134,-44.5 134,-80.5"/>
<text text-anchor="middle" x="84" y="-58.8" font-family="Times,serif" font-size="14.00">Input: (1, 612) </text>
</g>
<!-- generator_input_fc -->
<g id="node2" class="node">
<title>generator_input_fc</title>
<g id="a_node2"><a xlink:title="Input Size (1, 612) &#160;output size (612,)">
<polygon fill="#b2dfee" stroke="#b2dfee" points="333,-124 214,-124 214,-71 333,-71 333,-124"/>
<text text-anchor="middle" x="273.5" y="-108.8" font-family="Times,serif" font-size="14.00">Linear</text>
<text text-anchor="middle" x="273.5" y="-93.8" font-family="Times,serif" font-size="14.00">Out Channels: 612</text>
<text text-anchor="middle" x="273.5" y="-78.8" font-family="Times,serif" font-size="14.00">Kernel: &#45; </text>
</a>
</g>
</g>
<!-- generator_input&#45;&gt;generator_input_fc -->
<g id="edge1" class="edge">
<title>generator_input&#45;&gt;generator_input_fc</title>
<path fill="none" stroke="black" d="M134.26,-71.7C155.53,-75.67 180.77,-80.38 203.83,-84.68"/>
<polygon fill="black" stroke="black" points="203.43,-88.17 213.9,-86.56 204.71,-81.29 203.43,-88.17"/>
</g>
<!-- generator_input_fc_noise -->
<g id="node3" class="node">
<title>generator_input_fc_noise</title>
<g id="a_node3"><a xlink:title="Input Size (1, 100352) &#160;output size (100352,)">
<polygon fill="#b2dfee" stroke="#b2dfee" points="343,-53 204,-53 204,0 343,0 343,-53"/>
<text text-anchor="middle" x="273.5" y="-37.8" font-family="Times,serif" font-size="14.00">Linear</text>
<text text-anchor="middle" x="273.5" y="-22.8" font-family="Times,serif" font-size="14.00">Out Channels: 100352</text>
<text text-anchor="middle" x="273.5" y="-7.8" font-family="Times,serif" font-size="14.00">Kernel: &#45; </text>
</a>
</g>
</g>
<!-- generator_input&#45;&gt;generator_input_fc_noise -->
<g id="edge2" class="edge">
<title>generator_input&#45;&gt;generator_input_fc_noise</title>
<path fill="none" stroke="black" d="M134.26,-53.04C152.54,-49.53 173.75,-45.46 193.99,-41.57"/>
<polygon fill="black" stroke="black" points="194.67,-45.01 203.83,-39.68 193.35,-38.13 194.67,-45.01"/>
</g>
<!-- generator_input_main -->
<g id="node4" class="node">
<title>generator_input_main</title>
<polygon fill="#ffbbff" stroke="#ffbbff" points="121,-623.5 47,-623.5 47,-587.5 121,-587.5 121,-623.5"/>
<text text-anchor="middle" x="84" y="-601.8" font-family="Times,serif" font-size="14.00">Sequential</text>
</g>
<!-- generator_input_main_0 -->
<g id="node5" class="node">
<title>generator_input_main_0</title>
<polygon fill="#fff68f" stroke="#fff68f" points="320.5,-1066.5 226.5,-1066.5 226.5,-1030.5 320.5,-1030.5 320.5,-1066.5"/>
<text text-anchor="middle" x="273.5" y="-1044.8" font-family="Times,serif" font-size="14.00">BatchNorm2d</text>
</g>
<!-- generator_input_main&#45;&gt;generator_input_main_0 -->
<g id="edge3" class="edge">
<title>generator_input_main&#45;&gt;generator_input_main_0</title>
<path fill="none" stroke="black" d="M84.82,-623.55C85.16,-686.81 94.7,-901.07 204,-1021.5 207.81,-1025.7 212.36,-1029.26 217.28,-1032.26"/>
<polygon fill="black" stroke="black" points="215.96,-1035.53 226.44,-1037.11 219.23,-1029.34 215.96,-1035.53"/>
</g>
<!-- generator_input_main_1 -->
<g id="node6" class="node">
<title>generator_input_main_1</title>
<polygon fill="#fff68f" stroke="#fff68f" points="300.5,-1012.5 246.5,-1012.5 246.5,-976.5 300.5,-976.5 300.5,-1012.5"/>
<text text-anchor="middle" x="273.5" y="-990.8" font-family="Times,serif" font-size="14.00">ReLU</text>
</g>
<!-- generator_input_main&#45;&gt;generator_input_main_1 -->
<g id="edge4" class="edge">
<title>generator_input_main&#45;&gt;generator_input_main_1</title>
<path fill="none" stroke="black" d="M85.8,-623.53C89.32,-681.2 107.9,-863.47 204,-966.5 212.69,-975.82 224.94,-982.12 236.68,-986.35"/>
<polygon fill="black" stroke="black" points="235.74,-989.72 246.33,-989.43 237.86,-983.05 235.74,-989.72"/>
</g>
<!-- generator_input_main_2 -->
<g id="node7" class="node">
<title>generator_input_main_2</title>
<g id="a_node7"><a xlink:title="Input Size (1, 100352) &#160;output size (1, 256)">
<polygon fill="#b2dfee" stroke="#b2dfee" points="333,-958 214,-958 214,-905 333,-905 333,-958"/>
<text text-anchor="middle" x="273.5" y="-942.8" font-family="Times,serif" font-size="14.00">ConvTranspose2d</text>
<text text-anchor="middle" x="273.5" y="-927.8" font-family="Times,serif" font-size="14.00">Out Channels: 256</text>
<text text-anchor="middle" x="273.5" y="-912.8" font-family="Times,serif" font-size="14.00">Kernel: (4, 4) </text>
</a>
</g>
</g>
<!-- generator_input_main&#45;&gt;generator_input_main_2 -->
<g id="edge5" class="edge">
<title>generator_input_main&#45;&gt;generator_input_main_2</title>
<path fill="none" stroke="black" d="M88.01,-623.79C97.03,-673.32 128.01,-811.97 204,-895.5 204.86,-896.45 205.76,-897.38 206.68,-898.29"/>
<polygon fill="black" stroke="black" points="204.4,-900.94 214.24,-904.86 208.99,-895.66 204.4,-900.94"/>
</g>
<!-- generator_input_main_3 -->
<g id="node8" class="node">
<title>generator_input_main_3</title>
<polygon fill="#fff68f" stroke="#fff68f" points="320.5,-886.5 226.5,-886.5 226.5,-850.5 320.5,-850.5 320.5,-886.5"/>
<text text-anchor="middle" x="273.5" y="-864.8" font-family="Times,serif" font-size="14.00">BatchNorm2d</text>
</g>
<!-- generator_input_main&#45;&gt;generator_input_main_3 -->
<g id="edge6" class="edge">
<title>generator_input_main&#45;&gt;generator_input_main_3</title>
<path fill="none" stroke="black" d="M89.34,-623.58C100.68,-667.11 135.19,-778.72 204,-841.5 208.01,-845.16 212.58,-848.35 217.41,-851.13"/>
<polygon fill="black" stroke="black" points="215.82,-854.25 226.32,-855.68 219.01,-848.01 215.82,-854.25"/>
</g>
<!-- generator_input_main_4 -->
<g id="node9" class="node">
<title>generator_input_main_4</title>
<polygon fill="#fff68f" stroke="#fff68f" points="300.5,-832.5 246.5,-832.5 246.5,-796.5 300.5,-796.5 300.5,-832.5"/>
<text text-anchor="middle" x="273.5" y="-810.8" font-family="Times,serif" font-size="14.00">ReLU</text>
</g>
<!-- generator_input_main&#45;&gt;generator_input_main_4 -->
<g id="edge7" class="edge">
<title>generator_input_main&#45;&gt;generator_input_main_4</title>
<path fill="none" stroke="black" d="M92.33,-623.66C107.75,-659.74 146.92,-741.01 204,-787.5 213.5,-795.24 225.5,-800.97 236.79,-805.11"/>
<polygon fill="black" stroke="black" points="235.85,-808.49 246.45,-808.35 238.08,-801.85 235.85,-808.49"/>
</g>
<!-- generator_input_main_5 -->
<g id="node10" class="node">
<title>generator_input_main_5</title>
<polygon fill="lightgray" stroke="lightgray" points="310,-778.5 237,-778.5 237,-740.5 310,-740.5 310,-778.5"/>
<text text-anchor="middle" x="273.5" y="-763.3" font-family="Times,serif" font-size="14.00">Unknown</text>
<text text-anchor="middle" x="273.5" y="-748.3" font-family="Times,serif" font-size="14.00">ResBlock </text>
</g>
<!-- generator_input_main&#45;&gt;generator_input_main_5 -->
<g id="edge8" class="edge">
<title>generator_input_main&#45;&gt;generator_input_main_5</title>
<path fill="none" stroke="black" d="M98.51,-623.9C118.83,-650.48 159.65,-699.81 204,-730.5 211.25,-735.52 219.51,-739.92 227.72,-743.68"/>
<polygon fill="black" stroke="black" points="226.35,-746.9 236.92,-747.66 229.13,-740.48 226.35,-746.9"/>
</g>
<!-- generator_input_main_6 -->
<g id="node11" class="node">
<title>generator_input_main_6</title>
<g id="a_node11"><a xlink:title="Input Size (1, 256) &#160;output size (1, 128)">
<polygon fill="#b2dfee" stroke="#b2dfee" points="333,-722 214,-722 214,-669 333,-669 333,-722"/>
<text text-anchor="middle" x="273.5" y="-706.8" font-family="Times,serif" font-size="14.00">ConvTranspose2d</text>
<text text-anchor="middle" x="273.5" y="-691.8" font-family="Times,serif" font-size="14.00">Out Channels: 128</text>
<text text-anchor="middle" x="273.5" y="-676.8" font-family="Times,serif" font-size="14.00">Kernel: (4, 4) </text>
</a>
</g>
</g>
<!-- generator_input_main&#45;&gt;generator_input_main_6 -->
<g id="edge9" class="edge">
<title>generator_input_main&#45;&gt;generator_input_main_6</title>
<path fill="none" stroke="black" d="M121.15,-622.85C145.73,-634.65 178.94,-650.59 207.99,-664.53"/>
<polygon fill="black" stroke="black" points="206.73,-667.81 217.26,-668.98 209.76,-661.5 206.73,-667.81"/>
</g>
<!-- generator_input_main_7 -->
<g id="node12" class="node">
<title>generator_input_main_7</title>
<polygon fill="#fff68f" stroke="#fff68f" points="320.5,-650.5 226.5,-650.5 226.5,-614.5 320.5,-614.5 320.5,-650.5"/>
<text text-anchor="middle" x="273.5" y="-628.8" font-family="Times,serif" font-size="14.00">BatchNorm2d</text>
</g>
<!-- generator_input_main&#45;&gt;generator_input_main_7 -->
<g id="edge10" class="edge">
<title>generator_input_main&#45;&gt;generator_input_main_7</title>
<path fill="none" stroke="black" d="M121.15,-610.71C148.11,-614.59 185.45,-619.97 216.3,-624.41"/>
<polygon fill="black" stroke="black" points="216.09,-627.91 226.48,-625.87 217.08,-620.98 216.09,-627.91"/>
</g>
<!-- generator_input_main_8 -->
<g id="node13" class="node">
<title>generator_input_main_8</title>
<polygon fill="#fff68f" stroke="#fff68f" points="300.5,-596.5 246.5,-596.5 246.5,-560.5 300.5,-560.5 300.5,-596.5"/>
<text text-anchor="middle" x="273.5" y="-574.8" font-family="Times,serif" font-size="14.00">ReLU</text>
</g>
<!-- generator_input_main&#45;&gt;generator_input_main_8 -->
<g id="edge11" class="edge">
<title>generator_input_main&#45;&gt;generator_input_main_8</title>
<path fill="none" stroke="black" d="M121.15,-600.29C154.28,-595.52 203.08,-588.5 236.24,-583.72"/>
<polygon fill="black" stroke="black" points="237.02,-587.15 246.42,-582.26 236.02,-580.22 237.02,-587.15"/>
</g>
<!-- generator_input_main_9 -->
<g id="node14" class="node">
<title>generator_input_main_9</title>
<polygon fill="lightgray" stroke="lightgray" points="310,-542.5 237,-542.5 237,-504.5 310,-504.5 310,-542.5"/>
<text text-anchor="middle" x="273.5" y="-527.3" font-family="Times,serif" font-size="14.00">Unknown</text>
<text text-anchor="middle" x="273.5" y="-512.3" font-family="Times,serif" font-size="14.00">ResBlock </text>
</g>
<!-- generator_input_main&#45;&gt;generator_input_main_9 -->
<g id="edge12" class="edge">
<title>generator_input_main&#45;&gt;generator_input_main_9</title>
<path fill="none" stroke="black" d="M121.04,-588.72C144.55,-577.87 175.98,-563.58 204,-551.5 211.55,-548.25 219.6,-544.87 227.44,-541.63"/>
<polygon fill="black" stroke="black" points="228.92,-544.81 236.84,-537.78 226.26,-538.34 228.92,-544.81"/>
</g>
<!-- generator_input_main_10 -->
<g id="node15" class="node">
<title>generator_input_main_10</title>
<g id="a_node15"><a xlink:title="Input Size (1, 128) &#160;output size (1, 64)">
<polygon fill="#b2dfee" stroke="#b2dfee" points="331,-486 216,-486 216,-433 331,-433 331,-486"/>
<text text-anchor="middle" x="273.5" y="-470.8" font-family="Times,serif" font-size="14.00">ConvTranspose2d</text>
<text text-anchor="middle" x="273.5" y="-455.8" font-family="Times,serif" font-size="14.00">Out Channels: 64</text>
<text text-anchor="middle" x="273.5" y="-440.8" font-family="Times,serif" font-size="14.00">Kernel: (4, 4) </text>
</a>
</g>
</g>
<!-- generator_input_main&#45;&gt;generator_input_main_10 -->
<g id="edge13" class="edge">
<title>generator_input_main&#45;&gt;generator_input_main_10</title>
<path fill="none" stroke="black" d="M101.88,-587.16C123.88,-563.94 164.25,-523.58 204,-495.5 205.87,-494.18 207.8,-492.87 209.77,-491.59"/>
<polygon fill="black" stroke="black" points="211.95,-494.35 218.59,-486.09 208.25,-488.41 211.95,-494.35"/>
</g>
<!-- generator_input_main_11 -->
<g id="node16" class="node">
<title>generator_input_main_11</title>
<polygon fill="#fff68f" stroke="#fff68f" points="320.5,-414.5 226.5,-414.5 226.5,-378.5 320.5,-378.5 320.5,-414.5"/>
<text text-anchor="middle" x="273.5" y="-392.8" font-family="Times,serif" font-size="14.00">BatchNorm2d</text>
</g>
<!-- generator_input_main&#45;&gt;generator_input_main_11 -->
<g id="edge14" class="edge">
<title>generator_input_main&#45;&gt;generator_input_main_11</title>
<path fill="none" stroke="black" d="M92.33,-587.34C107.75,-551.26 146.92,-469.99 204,-423.5 208.05,-420.2 212.54,-417.27 217.25,-414.67"/>
<polygon fill="black" stroke="black" points="219.09,-417.67 226.48,-410.07 215.97,-411.4 219.09,-417.67"/>
</g>
<!-- generator_input_main_12 -->
<g id="node17" class="node">
<title>generator_input_main_12</title>
<polygon fill="#fff68f" stroke="#fff68f" points="300.5,-360.5 246.5,-360.5 246.5,-324.5 300.5,-324.5 300.5,-360.5"/>
<text text-anchor="middle" x="273.5" y="-338.8" font-family="Times,serif" font-size="14.00">ReLU</text>
</g>
<!-- generator_input_main&#45;&gt;generator_input_main_12 -->
<g id="edge15" class="edge">
<title>generator_input_main&#45;&gt;generator_input_main_12</title>
<path fill="none" stroke="black" d="M89.34,-587.42C100.68,-543.89 135.19,-432.28 204,-369.5 213.13,-361.17 225.13,-355.28 236.54,-351.18"/>
<polygon fill="black" stroke="black" points="237.88,-354.42 246.32,-348.01 235.73,-347.76 237.88,-354.42"/>
</g>
<!-- generator_input_main_13 -->
<g id="node18" class="node">
<title>generator_input_main_13</title>
<polygon fill="lightgray" stroke="lightgray" points="310,-306.5 237,-306.5 237,-268.5 310,-268.5 310,-306.5"/>
<text text-anchor="middle" x="273.5" y="-291.3" font-family="Times,serif" font-size="14.00">Unknown</text>
<text text-anchor="middle" x="273.5" y="-276.3" font-family="Times,serif" font-size="14.00">ResBlock </text>
</g>
<!-- generator_input_main&#45;&gt;generator_input_main_13 -->
<g id="edge16" class="edge">
<title>generator_input_main&#45;&gt;generator_input_main_13</title>
<path fill="none" stroke="black" d="M87.53,-587.17C95.41,-536.94 123.9,-395.49 204,-315.5 210.61,-308.9 218.99,-303.79 227.6,-299.86"/>
<polygon fill="black" stroke="black" points="229.03,-303.05 236.96,-296.04 226.38,-296.57 229.03,-303.05"/>
</g>
<!-- generator_input_main_14 -->
<g id="node19" class="node">
<title>generator_input_main_14</title>
<g id="a_node19"><a xlink:title="Input Size (1, 64) &#160;output size (1, 3)">
<polygon fill="#b2dfee" stroke="#b2dfee" points="331,-250 216,-250 216,-197 331,-197 331,-250"/>
<text text-anchor="middle" x="273.5" y="-234.8" font-family="Times,serif" font-size="14.00">ConvTranspose2d</text>
<text text-anchor="middle" x="273.5" y="-219.8" font-family="Times,serif" font-size="14.00">Out Channels: 3</text>
<text text-anchor="middle" x="273.5" y="-204.8" font-family="Times,serif" font-size="14.00">Kernel: (4, 4) </text>
</a>
</g>
</g>
<!-- generator_input_main&#45;&gt;generator_input_main_14 -->
<g id="edge17" class="edge">
<title>generator_input_main&#45;&gt;generator_input_main_14</title>
<path fill="none" stroke="black" d="M86.57,-587.41C92.25,-531.92 116.31,-361.71 204,-259.5 205.31,-257.97 206.71,-256.5 208.17,-255.08"/>
<polygon fill="black" stroke="black" points="210.63,-257.58 215.97,-248.43 206.09,-252.25 210.63,-257.58"/>
</g>
<!-- generator_input_main_15 -->
<g id="node20" class="node">
<title>generator_input_main_15</title>
<polygon fill="#fff68f" stroke="#fff68f" points="300.5,-178.5 246.5,-178.5 246.5,-142.5 300.5,-142.5 300.5,-178.5"/>
<text text-anchor="middle" x="273.5" y="-156.8" font-family="Times,serif" font-size="14.00">Tanh</text>
</g>
<!-- generator_input_main&#45;&gt;generator_input_main_15 -->
<g id="edge18" class="edge">
<title>generator_input_main&#45;&gt;generator_input_main_15</title>
<path fill="none" stroke="black" d="M84.79,-587.36C85.03,-523.81 94.29,-308.54 204,-187.5 212.58,-178.03 224.91,-171.84 236.75,-167.81"/>
<polygon fill="black" stroke="black" points="237.91,-171.12 246.49,-164.91 235.91,-164.41 237.91,-171.12"/>
</g>
<!-- discriminator_input_img -->
<g id="node21" class="node">
<title>discriminator_input_img</title>
<polygon fill="orange" stroke="orange" points="168,-1257.5 0,-1257.5 0,-1221.5 168,-1221.5 168,-1257.5"/>
<text text-anchor="middle" x="84" y="-1235.8" font-family="Times,serif" font-size="14.00">Input Img: (1, 3, 224, 224) </text>
</g>
<!-- discriminator_input_img_0 -->
<g id="node22" class="node">
<title>discriminator_input_img_0</title>
<g id="a_node22"><a xlink:title="Input Size (1, 3, 224, 224) &#160;output size (1, 64, 224, 224)">
<polygon fill="#b2dfee" stroke="#b2dfee" points="329.5,-1412 217.5,-1412 217.5,-1359 329.5,-1359 329.5,-1412"/>
<text text-anchor="middle" x="273.5" y="-1396.8" font-family="Times,serif" font-size="14.00">Conv2d</text>
<text text-anchor="middle" x="273.5" y="-1381.8" font-family="Times,serif" font-size="14.00">Out Channels: 64</text>
<text text-anchor="middle" x="273.5" y="-1366.8" font-family="Times,serif" font-size="14.00">Kernel: (4, 4) </text>
</a>
</g>
</g>
<!-- discriminator_input_img&#45;&gt;discriminator_input_img_0 -->
<g id="edge19" class="edge">
<title>discriminator_input_img&#45;&gt;discriminator_input_img_0</title>
<path fill="none" stroke="black" d="M101.88,-1257.84C123.88,-1281.06 164.25,-1321.42 204,-1349.5 205.87,-1350.82 207.8,-1352.13 209.77,-1353.41"/>
<polygon fill="black" stroke="black" points="208.25,-1356.59 218.59,-1358.91 211.95,-1350.65 208.25,-1356.59"/>
</g>
<!-- discriminator_input_img_1 -->
<g id="node23" class="node">
<title>discriminator_input_img_1</title>
<polygon fill="#fff68f" stroke="#fff68f" points="315,-1340.5 232,-1340.5 232,-1304.5 315,-1304.5 315,-1340.5"/>
<text text-anchor="middle" x="273.5" y="-1318.8" font-family="Times,serif" font-size="14.00">LeakyReLU</text>
</g>
<!-- discriminator_input_img&#45;&gt;discriminator_input_img_1 -->
<g id="edge20" class="edge">
<title>discriminator_input_img&#45;&gt;discriminator_input_img_1</title>
<path fill="none" stroke="black" d="M121.71,-1257.52C145.09,-1268.82 176.12,-1283.46 204,-1295.5 209.85,-1298.03 216.03,-1300.6 222.17,-1303.09"/>
<polygon fill="black" stroke="black" points="221.17,-1306.46 231.76,-1306.94 223.78,-1299.97 221.17,-1306.46"/>
</g>
<!-- discriminator_input_img_2 -->
<g id="node24" class="node">
<title>discriminator_input_img_2</title>
<polygon fill="lightgray" stroke="lightgray" points="322,-1286.5 225,-1286.5 225,-1248.5 322,-1248.5 322,-1286.5"/>
<text text-anchor="middle" x="273.5" y="-1271.3" font-family="Times,serif" font-size="14.00">Unknown</text>
<text text-anchor="middle" x="273.5" y="-1256.3" font-family="Times,serif" font-size="14.00">SpectralNorm </text>
</g>
<!-- discriminator_input_img&#45;&gt;discriminator_input_img_2 -->
<g id="edge21" class="edge">
<title>discriminator_input_img&#45;&gt;discriminator_input_img_2</title>
<path fill="none" stroke="black" d="M168.06,-1251.9C183.9,-1254.27 200.15,-1256.7 214.97,-1258.91"/>
<polygon fill="black" stroke="black" points="214.57,-1262.39 224.98,-1260.4 215.61,-1255.47 214.57,-1262.39"/>
</g>
<!-- discriminator_input_img_3 -->
<g id="node25" class="node">
<title>discriminator_input_img_3</title>
<polygon fill="#fff68f" stroke="#fff68f" points="315,-1230.5 232,-1230.5 232,-1194.5 315,-1194.5 315,-1230.5"/>
<text text-anchor="middle" x="273.5" y="-1208.8" font-family="Times,serif" font-size="14.00">LeakyReLU</text>
</g>
<!-- discriminator_input_img&#45;&gt;discriminator_input_img_3 -->
<g id="edge22" class="edge">
<title>discriminator_input_img&#45;&gt;discriminator_input_img_3</title>
<path fill="none" stroke="black" d="M168.06,-1227.54C186.39,-1224.9 205.28,-1222.18 221.86,-1219.79"/>
<polygon fill="black" stroke="black" points="222.47,-1223.24 231.86,-1218.35 221.47,-1216.31 222.47,-1223.24"/>
</g>
<!-- discriminator_input_img_4 -->
<g id="node26" class="node">
<title>discriminator_input_img_4</title>
<polygon fill="lightgray" stroke="lightgray" points="322,-1176.5 225,-1176.5 225,-1138.5 322,-1138.5 322,-1176.5"/>
<text text-anchor="middle" x="273.5" y="-1161.3" font-family="Times,serif" font-size="14.00">Unknown</text>
<text text-anchor="middle" x="273.5" y="-1146.3" font-family="Times,serif" font-size="14.00">SpectralNorm </text>
</g>
<!-- discriminator_input_img&#45;&gt;discriminator_input_img_4 -->
<g id="edge23" class="edge">
<title>discriminator_input_img&#45;&gt;discriminator_input_img_4</title>
<path fill="none" stroke="black" d="M123.69,-1221.49C146.88,-1210.81 177.02,-1197.13 204,-1185.5 207.85,-1183.84 211.83,-1182.15 215.85,-1180.46"/>
<polygon fill="black" stroke="black" points="217.35,-1183.63 225.24,-1176.55 214.66,-1177.16 217.35,-1183.63"/>
</g>
<!-- discriminator_input_img_5 -->
<g id="node27" class="node">
<title>discriminator_input_img_5</title>
<polygon fill="#fff68f" stroke="#fff68f" points="315,-1120.5 232,-1120.5 232,-1084.5 315,-1084.5 315,-1120.5"/>
<text text-anchor="middle" x="273.5" y="-1098.8" font-family="Times,serif" font-size="14.00">LeakyReLU</text>
</g>
<!-- discriminator_input_img&#45;&gt;discriminator_input_img_5 -->
<g id="edge24" class="edge">
<title>discriminator_input_img&#45;&gt;discriminator_input_img_5</title>
<path fill="none" stroke="black" d="M100.68,-1221.3C122.01,-1197.47 162.31,-1155.69 204,-1129.5 209.75,-1125.89 216.05,-1122.62 222.44,-1119.7"/>
<polygon fill="black" stroke="black" points="224,-1122.84 231.81,-1115.67 221.24,-1116.41 224,-1122.84"/>
</g>
<!-- discriminator_input_text -->
<g id="node28" class="node">
<title>discriminator_input_text</title>
<polygon fill="orange" stroke="orange" points="145.5,-1497.5 22.5,-1497.5 22.5,-1461.5 145.5,-1461.5 145.5,-1497.5"/>
<text text-anchor="middle" x="84" y="-1475.8" font-family="Times,serif" font-size="14.00">Input Text: (1, 512)</text>
</g>
<!-- discriminator_input_text_0 -->
<g id="node29" class="node">
<title>discriminator_input_text_0</title>
<g id="a_node29"><a xlink:title="Input Size (1, 512) &#160;output size (512,)">
<polygon fill="#b2dfee" stroke="#b2dfee" points="333,-1538 214,-1538 214,-1485 333,-1485 333,-1538"/>
<text text-anchor="middle" x="273.5" y="-1522.8" font-family="Times,serif" font-size="14.00">Linear</text>
<text text-anchor="middle" x="273.5" y="-1507.8" font-family="Times,serif" font-size="14.00">Out Channels: 512</text>
<text text-anchor="middle" x="273.5" y="-1492.8" font-family="Times,serif" font-size="14.00">Kernel: &#45; </text>
</a>
</g>
</g>
<!-- discriminator_input_text&#45;&gt;discriminator_input_text_0 -->
<g id="edge25" class="edge">
<title>discriminator_input_text&#45;&gt;discriminator_input_text_0</title>
<path fill="none" stroke="black" d="M145.62,-1489.85C164.12,-1493 184.6,-1496.5 203.6,-1499.74"/>
<polygon fill="black" stroke="black" points="203.24,-1503.23 213.69,-1501.46 204.42,-1496.33 203.24,-1503.23"/>
</g>
<!-- discriminator_input_text_1 -->
<g id="node30" class="node">
<title>discriminator_input_text_1</title>
<polygon fill="#fff68f" stroke="#fff68f" points="315,-1466.5 232,-1466.5 232,-1430.5 315,-1430.5 315,-1466.5"/>
<text text-anchor="middle" x="273.5" y="-1444.8" font-family="Times,serif" font-size="14.00">LeakyReLU</text>
</g>
<!-- discriminator_input_text&#45;&gt;discriminator_input_text_1 -->
<g id="edge26" class="edge">
<title>discriminator_input_text&#45;&gt;discriminator_input_text_1</title>
<path fill="none" stroke="black" d="M145.62,-1469.48C170.22,-1465.41 198.32,-1460.76 221.81,-1456.88"/>
<polygon fill="black" stroke="black" points="222.62,-1460.29 231.91,-1455.21 221.48,-1453.39 222.62,-1460.29"/>
</g>
<!-- Joint_input -->
<g id="node31" class="node">
<title>Joint_input</title>
<polygon fill="coral" stroke="coral" points="158,-1676.5 10,-1676.5 10,-1640.5 158,-1640.5 158,-1676.5"/>
<text text-anchor="middle" x="84" y="-1654.8" font-family="Times,serif" font-size="14.00">Joined Feature map 512</text>
</g>
<!-- Joint_input_0 -->
<g id="node32" class="node">
<title>Joint_input_0</title>
<polygon fill="lightgray" stroke="lightgray" points="322,-1760.5 225,-1760.5 225,-1722.5 322,-1722.5 322,-1760.5"/>
<text text-anchor="middle" x="273.5" y="-1745.3" font-family="Times,serif" font-size="14.00">Unknown</text>
<text text-anchor="middle" x="273.5" y="-1730.3" font-family="Times,serif" font-size="14.00">SpectralNorm </text>
</g>
<!-- Joint_input&#45;&gt;Joint_input_0 -->
<g id="edge27" class="edge">
<title>Joint_input&#45;&gt;Joint_input_0</title>
<path fill="none" stroke="black" d="M122.85,-1676.52C146.14,-1687.48 176.66,-1701.6 204,-1713.5 207.84,-1715.17 211.82,-1716.87 215.83,-1718.57"/>
<polygon fill="black" stroke="black" points="214.64,-1721.86 225.22,-1722.5 217.34,-1715.41 214.64,-1721.86"/>
</g>
<!-- Joint_input_1 -->
<g id="node33" class="node">
<title>Joint_input_1</title>
<polygon fill="#fff68f" stroke="#fff68f" points="315,-1704.5 232,-1704.5 232,-1668.5 315,-1668.5 315,-1704.5"/>
<text text-anchor="middle" x="273.5" y="-1682.8" font-family="Times,serif" font-size="14.00">LeakyReLU</text>
</g>
<!-- Joint_input&#45;&gt;Joint_input_1 -->
<g id="edge28" class="edge">
<title>Joint_input&#45;&gt;Joint_input_1</title>
<path fill="none" stroke="black" d="M158.03,-1669.41C179.39,-1672.6 202.27,-1676.01 221.91,-1678.95"/>
<polygon fill="black" stroke="black" points="221.46,-1682.42 231.87,-1680.43 222.49,-1675.49 221.46,-1682.42"/>
</g>
<!-- Joint_input_2 -->
<g id="node34" class="node">
<title>Joint_input_2</title>
<polygon fill="lightgray" stroke="lightgray" points="322,-1650.5 225,-1650.5 225,-1612.5 322,-1612.5 322,-1650.5"/>
<text text-anchor="middle" x="273.5" y="-1635.3" font-family="Times,serif" font-size="14.00">Unknown</text>
<text text-anchor="middle" x="273.5" y="-1620.3" font-family="Times,serif" font-size="14.00">SpectralNorm </text>
</g>
<!-- Joint_input&#45;&gt;Joint_input_2 -->
<g id="edge29" class="edge">
<title>Joint_input&#45;&gt;Joint_input_2</title>
<path fill="none" stroke="black" d="M158.03,-1647.98C176.86,-1645.27 196.85,-1642.39 214.78,-1639.81"/>
<polygon fill="black" stroke="black" points="215.39,-1643.26 224.79,-1638.37 214.39,-1636.33 215.39,-1643.26"/>
</g>
<!-- Joint_input_3 -->
<g id="node35" class="node">
<title>Joint_input_3</title>
<polygon fill="lightgray" stroke="lightgray" points="308.5,-1594.5 238.5,-1594.5 238.5,-1556.5 308.5,-1556.5 308.5,-1594.5"/>
<text text-anchor="middle" x="273.5" y="-1579.3" font-family="Times,serif" font-size="14.00">Unknown</text>
<text text-anchor="middle" x="273.5" y="-1564.3" font-family="Times,serif" font-size="14.00">Sigmoid </text>
</g>
<!-- Joint_input&#45;&gt;Joint_input_3 -->
<g id="edge30" class="edge">
<title>Joint_input&#45;&gt;Joint_input_3</title>
<path fill="none" stroke="black" d="M122.85,-1640.48C146.14,-1629.52 176.66,-1615.4 204,-1603.5 211.96,-1600.04 220.49,-1596.45 228.73,-1593.05"/>
<polygon fill="black" stroke="black" points="230.3,-1596.19 238.23,-1589.16 227.65,-1589.71 230.3,-1596.19"/>
</g>
</g>
</svg>
